<svg xmlns="http://www.w3.org/2000/svg" viewBox="0 0 1200 200">
  <!-- Dark blue background - reduced height from 250 to 200 -->
  <rect width="1200" height="200" fill="#0B192C" />
  
  <!-- Background pattern -->
  <pattern id="networkPattern" patternUnits="userSpaceOnUse" width="60" height="60" patternTransform="rotate(10)">
    <path d="M0 30 L60 30 M30 0 L30 60" stroke="#1E3E62" stroke-width="0.5" fill="none" opacity="0.1" />
  </pattern>
  <rect width="1200" height="200" fill="url(#networkPattern)" />
  
  <!-- Main logo - position adjusted for shorter banner -->
  <g transform="translate(100, 30) scale(1.3)">
    <!-- Background circle -->
    <circle cx="60" cy="60" r="55" fill="#0B192C" />
    <circle cx="60" cy="60" r="52" fill="none" stroke="#1E3E62" stroke-width="1.5" />
    
    <!-- Centered pipeline representation -->
    <path d="M20,60 C35,45 45,75 60,60 C75,45 85,75 100,60" stroke="#1E3E62" stroke-width="3.5" fill="none" stroke-linecap="round" />
    
    <!-- Connection nodes -->
    <circle cx="20" cy="60" r="6" fill="#FF6500" />
    <circle cx="60" cy="60" r="6" fill="#FF6500" />
    <circle cx="100" cy="60" r="6" fill="#FF6500" />
    
    <!-- Data flow visualization -->
    <circle cx="40" cy="60" r="3" fill="#1E3E62" />
    <circle cx="80" cy="60" r="3" fill="#1E3E62" />
    
    <!-- Pulse effect on pipeline -->
    <circle cx="40" cy="60" r="5" fill="none" stroke="#FF6500" stroke-width="1" opacity="0.6" />
    <circle cx="80" cy="60" r="5" fill="none" stroke="#FF6500" stroke-width="1" opacity="0.6" />
    
    <!-- Company name -->
    <text x="60" y="85" font-family="Arial, sans-serif" font-weight="bold" font-size="11" text-anchor="middle" fill="white">MIMIR</text>
    <text x="60" y="98" font-family="Arial, sans-serif" font-weight="bold" font-size="10" text-anchor="middle" fill="#FF6500">AIP</text>
  </g>
  
  <!-- Company text -->
  <g transform="translate(270, 90)">
    <text x="0" y="0" font-family="Arial, sans-serif" font-weight="bold" font-size="48" fill="white">MIMIR AIP</text>
    <text x="0" y="40" font-family="Arial, sans-serif" font-size="24" fill="#FF6500">Building the future of intelligent data pipelines</text>
  </g>
  
  <!-- Animated data flow (right side decoration) -->
  <g transform="translate(800, 90)">
    <path d="M0,0 C50,-30 100,30 150,0 C200,-30 250,30 300,0" stroke="#1E3E62" stroke-width="5" fill="none" stroke-linecap="round" />
    <circle cx="0" cy="0" r="8" fill="#FF6500" />
    <circle cx="150" cy="0" r="8" fill="#FF6500" />
    <circle cx="300" cy="0" r="8" fill="#FF6500" />
    
    <circle cx="75" cy="0" r="4" fill="#1E3E62" />
    <circle cx="225" cy="0" r="4" fill="#1E3E62" />
    
    <circle cx="75" cy="0" r="7" fill="none" stroke="#FF6500" stroke-width="1" opacity="0.6" />
    <circle cx="225" cy="0" r="7" fill="none" stroke="#FF6500" stroke-width="1" opacity="0.6" />
  </g>
</svg>
